<svg width="31" height="31" fill="none" xmlns="http://www.w3.org/2000/svg"><path d="M15.5 1.292a14.066 14.066 0 0 0-14.208 13.91 13.937 13.937 0 0 0 9.713 13.215c.71.129.969-.297.969-.672v-2.364c-3.953.84-4.792-1.86-4.792-1.86a3.694 3.694 0 0 0-1.576-2.04c-1.292-.853.103-.84.103-.84a2.984 2.984 0 0 1 2.17 1.434 3.061 3.061 0 0 0 4.133 1.15 3.009 3.009 0 0 1 .905-1.86c-3.152-.35-6.459-1.538-6.459-6.872a5.36 5.36 0 0 1 1.434-3.76 4.883 4.883 0 0 1 .142-3.668s1.201-.374 3.875 1.421c2.328-.62 4.777-.62 7.104 0 2.713-1.795 3.875-1.42 3.875-1.42a4.883 4.883 0 0 1 .142 3.668 5.36 5.36 0 0 1 1.512 3.733c0 5.347-3.333 6.523-6.459 6.871a3.23 3.23 0 0 1 .97 2.584v3.81s.257.814.968.672a13.95 13.95 0 0 0 9.687-13.201A14.066 14.066 0 0 0 15.5 1.292Z" fill="#D1B000"/></svg>