<svg width="31" height="31" fill="none" xmlns="http://www.w3.org/2000/svg"><path d="M15.482 0c2.148 0 4.16.407 6.037 1.222a15.946 15.946 0 0 1 4.925 3.315 15.56 15.56 0 0 1 3.334 4.907c.815 1.877 1.222 3.89 1.222 6.037 0 2.149-.407 4.161-1.222 6.037a15.783 15.783 0 0 1-3.334 4.926 15.783 15.783 0 0 1-4.925 3.334c-1.877.815-3.89 1.222-6.037 1.222-2.149 0-4.161-.407-6.038-1.222a15.56 15.56 0 0 1-4.907-3.334 15.946 15.946 0 0 1-3.315-4.925C.407 19.642 0 17.628 0 15.482c0-2.149.407-4.161 1.222-6.038a15.72 15.72 0 0 1 3.315-4.907 15.72 15.72 0 0 1 4.907-3.315C11.321.407 13.334 0 15.481 0Zm-4.815 11.63h-3.89v12.592h3.89V11.63Zm-1.963-1c.543 0 1.006-.186 1.389-.556.382-.37.574-.827.574-1.37 0-.544-.192-1-.574-1.37a1.924 1.924 0 0 0-1.39-.556c-.543 0-1 .185-1.37.555-.37.37-.555.827-.555 1.37 0 .544.185 1 .555 1.371.37.37.827.556 1.37.556Zm15.518 6.296c0-.889-.247-1.76-.74-2.611-.494-.852-1.136-1.5-1.926-1.945-.716-.395-1.55-.605-2.5-.63-.951-.024-1.821.136-2.612.482v-.592h-3.851v12.592h3.851v-7.704l1.63-.777c.198-.099.463-.148.796-.148.334 0 .6.061.797.185.148.074.296.234.444.481.148.247.222.47.222.667v7.296h3.89v-7.296Z" fill="#D1B000"/></svg>